<?xml version="1.0" encoding="UTF-8"?>
<!DOCTYPE svg PUBLIC "-//W3C//DTD SVG 1.1//EN" "http://www.w3.org/Graphics/SVG/1.1/DTD/svg11.dtd">
<!-- Creator: CorelDRAW X8 -->
<svg xmlns="http://www.w3.org/2000/svg" xml:space="preserve" width="297mm" height="190.08mm" version="1.1" style="shape-rendering:geometricPrecision; text-rendering:geometricPrecision; image-rendering:optimizeQuality; fill-rule:evenodd; clip-rule:evenodd"
viewBox="0 0 115842 74139"
 xmlns:xlink="http://www.w3.org/1999/xlink">
 <defs>
  <style type="text/css">
   <![CDATA[
    .fil5 {fill:none}
    .fil2 {fill:#1F8884}
    .fil3 {fill:#262E6C}
    .fil0 {fill:#C4302C}
    .fil1 {fill:#DE8026}
    .fil4 {fill:#FEFEFE}
   ]]>
  </style>
 </defs>
 <g id="Layer_x0020_1">
  <metadata id="CorelCorpID_0Corel-Layer"/>
  <g id="_2031607355632">
   <path class="fil0" d="M100848 44937l0 -179 -2477 -15842 -4306 7c-130,200 -645,2093 -766,2502 -467,1582 -1991,6428 -2166,7713 -140,-258 -239,-980 -332,-1318l-1123 -3816c-252,-862 -494,-1700 -745,-2542 -251,-846 -475,-1707 -751,-2547l-4340 4 -2458 16008c549,29 3723,69 4071,-22 225,-1707 463,-3359 687,-5064 114,-859 230,-1688 342,-2544 55,-428 182,-2384 284,-2586 104,260 221,1005 305,1334 111,433 243,848 369,1273l2210 7616 2933 3c443,-1711 1004,-3462 1498,-5177 238,-825 1400,-4635 1389,-5184 110,865 153,1816 252,2692 95,843 226,1683 338,2530 226,1716 462,3391 695,5136l4091 3z"/>
   <path class="fil1" d="M49707 44928l4109 7 16 -6157c326,298 3479,6026 3677,6129 357,105 4158,35 4865,27 -34,-264 -345,-617 -504,-847l-3760 -5579c293,-215 2558,-397 3303,-2907 558,-1878 127,-3771 -858,-4949 -1740,-2081 -4846,-1726 -7703,-1728 -996,-1 -2167,-56 -3142,10l-3 15994z"/>
   <path class="fil2" d="M78264 28916l-4365 3c-31,2573 -4,5166 -1,7739 3,2611 189,5022 -2752,5014 -2991,-9 -2793,-2384 -2793,-5014l-11 -7729 -4320 -11c-83,364 -28,5050 -28,5839 0,5392 -815,10583 7101,10600 7963,17 7168,-5099 7172,-10497 2,-1972 32,-3975 -3,-5944z"/>
   <polygon class="fil3" points="18628,44936 22900,44937 22902,38660 28121,38641 28149,35207 22915,35200 22901,32452 28461,32437 28461,28936 18628,28916 "/>
   <path class="fil3" d="M37717 28642l-210 0c-281,131 -736,185 -1075,280 -346,98 -669,224 -995,340 -1723,615 -3521,1927 -4362,3552 -223,430 -339,459 -138,941 370,890 871,1804 1381,2573 361,546 735,1063 1157,1516 279,298 1039,1184 1321,1279 -897,-2052 -523,-3920 247,-5937 318,-834 786,-1689 1209,-2388 590,-975 971,-1394 1465,-2156z"/>
   <path class="fil1" d="M39715 45497l320 0 281 -104c2421,-601 4838,-1805 6041,-4080 196,-370 333,-502 110,-991 -497,-1088 -704,-1495 -1373,-2533 -414,-645 -1976,-2605 -2449,-2760 30,148 184,459 248,648 992,2930 -884,6449 -2438,8779 -199,298 -624,782 -740,1041z"/>
   <path class="fil2" d="M36657 33165c494,-152 779,-320 1385,-422 2480,-415 4889,703 6937,1870 367,210 766,476 1092,707 228,161 875,676 1083,741 -168,-1313 -838,-2954 -1426,-3890 -687,-1092 -1505,-2029 -2680,-2668 -330,-180 -535,-376 -912,-223 -320,129 -619,274 -920,416 -1284,609 -3900,2397 -4559,3469z"/>
   <path class="fil0" d="M40764 40988c-195,52 -385,159 -616,233 -242,78 -458,136 -736,186 -562,100 -1137,112 -1714,61 -1034,-91 -2006,-381 -2862,-720 -1113,-439 -2496,-1204 -3485,-1908 -256,-183 -870,-665 -1080,-748 46,1129 933,3110 1418,3901 675,1101 1548,2041 2683,2661 710,389 652,391 1857,-207 1218,-604 2220,-1285 3219,-2127 302,-255 1142,-1039 1316,-1332z"/>
   <path class="fil4" d="M53830 36454c777,97 1924,10 2515,-259 702,-320 996,-891 982,-1799 -33,-2020 -1579,-2263 -3492,-2098l-5 4156z"/>
  </g>
  <rect class="fil5" width="115842" height="74139"/>
 </g>
</svg>
